<?xml version="1.0" encoding="UTF-8" standalone="no"?>
<!-- Created with Inkscape (http://www.inkscape.org/) -->

<svg
   width="81.573189mm"
   height="34.22509mm"
   viewBox="0 0 81.573189 34.22509"
   version="1.1"
   id="svg5"
   inkscape:version="1.1.1 (3bf5ae0d25, 2021-09-20)"
   sodipodi:docname="logo.svg"
   xmlns:inkscape="http://www.inkscape.org/namespaces/inkscape"
   xmlns:sodipodi="http://sodipodi.sourceforge.net/DTD/sodipodi-0.dtd"
   xmlns="http://www.w3.org/2000/svg"
   xmlns:svg="http://www.w3.org/2000/svg">
  <sodipodi:namedview
     id="namedview7"
     pagecolor="#505050"
     bordercolor="#eeeeee"
     borderopacity="1"
     inkscape:pageshadow="0"
     inkscape:pageopacity="0"
     inkscape:pagecheckerboard="0"
     inkscape:document-units="mm"
     showgrid="false"
     inkscape:snap-global="false"
     fit-margin-top="0"
     fit-margin-left="0"
     fit-margin-right="0"
     fit-margin-bottom="0"
     inkscape:zoom="1.4142136"
     inkscape:cx="155.20994"
     inkscape:cy="26.516504"
     inkscape:window-width="1362"
     inkscape:window-height="1011"
     inkscape:window-x="331"
     inkscape:window-y="42"
     inkscape:window-maximized="0"
     inkscape:current-layer="layer1" />
  <defs
     id="defs2">
    <radialGradient
       fx="0"
       fy="0"
       cx="0"
       cy="0"
       r="0.5"
       gradientUnits="userSpaceOnUse"
       gradientTransform="matrix(104.63949,0,0,104.63949,125.6596,100.5361)"
       spreadMethod="pad"
       id="radialGradient33">
      <stop
         style="stop-opacity:1;stop-color:#ffffff"
         offset="0"
         id="stop29" />
      <stop
         style="stop-opacity:1;stop-color:#5aa3df"
         offset="1"
         id="stop31" />
    </radialGradient>
  </defs>
  <g
     inkscape:label="Capa 1"
     inkscape:groupmode="layer"
     id="layer1"
     transform="translate(-46.102295,-80.710627)">
    <g
       id="g17"
       transform="matrix(0.35277777,0,0,-0.35277777,35.507003,125.07603)">
      <g
         id="g19">
        <g
           id="g21">
          <g
             id="g27">
            <path
               d="m 145.8003,125.7602 c -27.8079,0 -50.3518,-21.7191 -50.3518,-48.5076 0,-26.7914 22.5439,-48.5084 50.3518,-48.5084 27.8079,0 50.3521,21.717 50.3521,48.5084 0,26.7885 -22.5442,48.5076 -50.3521,48.5076"
               style="fill:url(#radialGradient33);fill-rule:evenodd;stroke:none"
               id="path35" />
          </g>
        </g>
      </g>
      <path
         d="m 244.4131,39.9569 v 5.0658 h 0.369 c 0.0916,-1.3808 0.2756,-2.5787 0.6446,-3.4076 0.3683,-0.9209 0.8289,-1.3807 1.4735,-1.3807 0.2755,0 0.5522,0.0907 0.7361,0.3682 0.1843,0.2755 0.2767,0.5511 0.2767,1.0125 0,0.4598 -0.0924,1.0129 -0.3691,1.6566 -0.2755,0.6449 -0.6437,1.4735 -1.2883,2.4863 -0.7373,1.2903 -1.1055,2.3023 -1.3819,2.9469 -0.184,0.737 -0.3682,1.5658 -0.3682,2.3028 0,0.9213 0.1842,1.7502 0.5522,2.3015 0.2766,0.6454 0.7373,0.9213 1.2894,0.9213 0.2764,0 0.5531,-0.1843 0.7371,-0.2759 0.1842,-0.1839 0.4597,-0.4597 0.6448,-0.737 l 0.368,0.921 h 0.3682 v -4.6052 h -0.3682 c -0.0924,1.2904 -0.2764,2.3023 -0.5531,3.132 -0.3682,0.7371 -0.7361,1.1053 -1.1968,1.1053 -0.2766,0 -0.5521,-0.184 -0.6448,-0.3682 -0.2756,-0.1849 -0.368,-0.5531 -0.368,-0.9222 0,-0.6446 0.4607,-1.6565 1.1968,-2.8542 0.2767,-0.4597 0.5531,-0.9212 0.6446,-1.197 0.6449,-1.1053 1.1971,-2.0254 1.3819,-2.8542 0.2755,-0.7362 0.3682,-1.4743 0.3682,-2.2096 0,-1.1053 -0.1842,-1.9341 -0.553,-2.5787 -0.3682,-0.6457 -0.8289,-0.9213 -1.3811,-0.9213 -0.3682,0 -0.7361,0.0916 -0.9212,0.2756 -0.2755,0.0935 -0.6438,0.4617 -0.8289,0.8288 l -0.4595,-1.0128 z m 7.3669,1.1968 c 0,-0.3671 -0.0915,-0.7353 -0.2755,-1.0128 -0.1851,-0.184 -0.3691,-0.2756 -0.6446,-0.2756 -0.2767,0 -0.5533,0.0916 -0.7373,0.2756 -0.0915,0.2775 -0.184,0.6457 -0.184,1.0128 0,0.4614 0.0925,0.7373 0.184,1.0148 0.184,0.2755 0.4606,0.3671 0.7373,0.3671 0.2755,0 0.4595,-0.0916 0.6446,-0.3671 0.184,-0.2775 0.2755,-0.5534 0.2755,-1.0148 z m 1.8426,0.8297 c -0.0925,-0.0924 -0.0925,-0.2767 -0.0925,-0.3683 0,-0.0924 0,-0.1839 0,-0.3679 0,-0.2775 0.0925,-0.4606 0.184,-0.553 0.184,-0.0916 0.4606,-0.2758 0.737,-0.2758 v -0.368 h -2.4871 v 0.368 c 0.5533,0.1842 0.8289,0.7353 1.014,1.8416 0,0 0,0.0916 0,0.184 l 1.9329,11.5106 h 1.3819 l 2.118,-13.5362 h 0.4607 v -0.368 h -3.2233 v 0.368 h 0.8286 l -0.4607,3.5915 h -2.118 z m 0.2755,2.4862 h 2.118 l -1.0128,6.9979 z m 7.2754,-3.3159 c 0,-0.3671 -0.0924,-0.7353 -0.1848,-1.0128 -0.2756,-0.184 -0.4598,-0.2756 -0.7362,-0.2756 -0.2767,0 -0.5522,0.0916 -0.7373,0.2756 -0.0915,0.2775 -0.184,0.6457 -0.184,1.0128 0,0.4614 0.0925,0.7373 0.184,1.0148 0.1851,0.2755 0.4606,0.3671 0.7373,0.3671 0.2764,0 0.4606,-0.0916 0.7362,-0.3671 0.0924,-0.2775 0.1848,-0.5534 0.1848,-1.0148"
         style="fill:#003d6c;fill-opacity:1;fill-rule:evenodd;stroke:none"
         id="path37" />
      <path
         d="m 30.0339,60.9537 v 0.9212 c 0.8289,0.184 1.2895,0.5511 1.6574,1.2884 0.1843,0.6437 0.3683,2.0256 0.3683,3.7754 v 26.8886 h -1.8414 v 0.9221 h 6.7223 l 3.4988,-21.6413 3.316,21.6413 h 7.0903 V 93.8273 H 49.0958 V 61.8749 h 1.7498 v -0.9212 h -8.1031 v 0.9212 h 1.8414 V 93.3684 L 39.7032,60.9537 H 38.5064 L 33.2575,93.3684 V 67.3985 c 0,-2.3011 0.1839,-3.6822 0.5522,-4.4203 0.3679,-0.6438 1.1052,-0.9193 2.0253,-1.1033 v -0.9212 z m 22.7458,0 v 0.9212 h 1.8417 v 31.9524 h -1.8417 v 0.9221 H 64.9352 V 84.0665 H 64.014 c -0.0916,3.6839 -0.4598,6.3542 -1.0129,7.6428 -0.7361,1.3816 -1.6574,2.118 -3.1308,2.118 -0.0924,0 -0.2767,0 -0.3683,0 -0.0924,0 -0.2763,0 -0.2763,0 V 78.7252 h 0.1839 c 0.737,0 1.2892,0.4615 1.6575,1.3816 0.2766,0.9213 0.4606,2.5778 0.4606,4.7886 H 62.265 V 71.4515 h -0.7373 c -0.0916,2.4851 -0.184,4.3268 -0.5522,5.0641 -0.2767,0.8286 -0.7373,1.29 -1.4735,1.29 H 59.2257 V 61.8749 h 0.3679 c 1.7501,0 2.9469,0.8286 3.5915,2.4852 0.7373,1.5658 1.1979,4.4203 1.3819,8.3797 h 0.8288 V 60.9537 Z m 25.7842,2.5786 c -0.3682,-0.9221 -0.9204,-1.7509 -1.565,-2.3031 -0.553,-0.553 -1.2895,-0.8286 -2.118,-0.8286 -2.0265,0 -3.7755,1.4743 -5.1574,4.7883 -1.4735,3.1317 -2.2096,7.2754 -2.2096,12.0637 0,5.1574 0.7361,9.5766 2.302,12.9832 1.565,3.3169 3.4991,5.0658 5.8011,5.0658 0.553,0 1.1968,-0.2766 1.7501,-0.5522 0.6446,-0.2775 1.1968,-0.8288 1.6574,-1.4743 l 1.0129,1.9341 h 0.9212 V 82.1324 h -0.9212 c -0.2767,4.2373 -0.8289,7.2754 -1.5651,9.2095 -0.7372,2.0265 -1.8425,3.0385 -3.0393,3.0385 -1.0128,0 -1.934,-1.012 -2.3023,-2.6711 -0.2763,-1.7481 -0.5521,-5.9854 -0.5521,-12.7066 v -4.6043 c 0,-5.618 0.0915,-9.2095 0.4597,-10.8661 0.3691,-1.4734 1.0137,-2.3031 1.8426,-2.3031 0.7361,0 1.1967,0.3682 1.3807,0.9213 0.3682,0.7372 0.5522,1.8413 0.5522,3.2224 v 10.5894 h -1.8414 v 1.0148 h 8.2882 V 75.9623 H 81.4192 V 60.4006 H 80.498 Z m 7.8276,2.1181 c -0.184,-0.2775 -0.184,-0.553 -0.184,-0.8297 0,-0.2767 0,-0.5522 0,-0.8289 0,-0.737 0.184,-1.2883 0.5522,-1.5658 0.368,-0.2755 0.9213,-0.5511 1.7498,-0.5511 v -0.9212 h -6.0777 v 0.9212 c 1.1971,0.2756 2.0256,1.8414 2.4862,4.4201 0,0.0907 0,0.2747 0,0.3682 l 4.6968,28.0862 h 3.4991 l 4.9725,-32.8745 h 1.3816 v -0.9212 h -7.92 v 0.9212 h 2.0265 l -1.1979,8.6545 h -5.2489 z m 0.8288,5.9851 h 5.0647 l -2.5787,16.9438 z m 14.55,22.1918 h -1.8417 v 0.9221 h 5.6172 c 1.4734,0 2.5786,-0.2775 3.4075,-0.553 0.9201,-0.3691 1.749,-1.1055 2.486,-2.0256 1.2895,-1.6586 2.3938,-3.6839 3.1308,-6.0786 0.7365,-2.3939 1.1056,-5.1565 1.1056,-8.2866 0,-3.0401 -0.3691,-5.8943 -1.1056,-8.1966 -0.737,-2.4863 -1.8413,-4.5116 -3.1308,-6.1702 -0.737,-0.8286 -1.5659,-1.5639 -2.3944,-1.9329 -0.8289,-0.4607 -2.0257,-0.5522 -3.4991,-0.5522 h -5.6172 v 0.9212 h 1.8417 z m 4.6043,0 V 61.8749 c 0.6446,0 1.1968,0.184 1.7498,0.4595 0.5522,0.2758 0.9205,0.5533 1.2884,0.9204 0.3691,0.737 0.7373,1.9341 0.8288,3.5924 0.0924,1.6574 0.2767,5.3396 0.2767,10.9584 0,5.7079 -0.1843,9.2994 -0.2767,11.0492 -0.0915,1.6574 -0.4597,2.8545 -0.8288,3.4075 -0.3679,0.5522 -0.7362,0.8286 -1.1968,1.1061 -0.4606,0.2747 -1.1968,0.4589 -1.8414,0.4589 z M 124.147,61.8749 h 1.9341 v -0.9212 h -8.3801 v 0.9212 h 1.9341 v 31.9524 h -1.9341 v 0.9221 h 8.3801 v -0.9221 h -1.9341 z m 5.9859,3.7755 c -0.0924,-0.2775 -0.0924,-0.553 -0.0924,-0.8297 0,-0.2767 0,-0.5522 0,-0.8289 0,-0.737 0.0924,-1.2883 0.4606,-1.5658 0.3683,-0.2755 1.0129,-0.5511 1.8417,-0.5511 v -0.9212 h -6.1693 v 0.9212 c 1.1968,0.2756 2.0256,1.8414 2.5778,4.4201 0,0.0907 0,0.2747 0,0.3682 l 4.6052,28.0862 h 3.4988 l 5.0649,-32.8745 h 1.2895 v -0.9212 h -7.9203 v 0.9212 h 2.0265 l -1.1976,8.6545 h -5.2489 z m 0.8289,5.9851 h 5.0649 l -2.4863,16.9438 z m 23.1139,-8.1032 c -0.3682,-0.9221 -1.0128,-1.7509 -1.5658,-2.3031 -0.6438,-0.553 -1.381,-0.8286 -2.2099,-0.8286 -2.0254,0 -3.6839,1.4743 -5.1574,4.7883 -1.3807,3.1317 -2.1172,7.2754 -2.1172,12.0637 0,5.1574 0.7365,9.5766 2.2099,12.9832 1.5659,3.3169 3.4988,5.0658 5.8011,5.0658 0.5531,0 1.1977,-0.2766 1.8423,-0.5522 0.5522,-0.2775 1.197,-0.8288 1.6577,-1.4743 l 0.9201,1.9341 h 1.0137 V 82.1324 h -1.0137 c -0.184,4.2373 -0.8286,7.2754 -1.565,9.2095 -0.737,2.0265 -1.7498,3.0385 -2.9466,3.0385 -1.1055,0 -1.9341,-1.012 -2.3023,-2.6711 -0.368,-1.7481 -0.6446,-5.9854 -0.6446,-12.7066 v -4.6043 c 0,-5.618 0.184,-9.2095 0.5522,-10.8661 0.369,-1.4734 0.9212,-2.3031 1.7498,-2.3031 0.7364,0 1.1971,0.3682 1.4734,0.9213 0.3683,0.7372 0.4607,1.8413 0.4607,3.2224 v 10.5894 h -1.8414 v 1.0148 h 8.2874 V 75.9623 H 156.93 V 60.4006 h -1.0129 z m 5.249,-2.5786 v 0.9212 c 0.8285,0.184 1.3807,0.5511 1.7498,1.1033 0.2758,0.7381 0.5522,1.9349 0.5522,3.685 v 27.1641 h -1.9341 v 0.9221 h 5.7095 l 7.183,-20.351 v 15.0094 c 0,1.4726 -0.1839,2.579 -0.5522,3.316 -0.4606,0.6446 -1.1976,1.1035 -2.118,1.1035 v 0.9221 h 6.1693 v -0.9221 h -0.0915 c -0.8289,0 -1.4735,-0.2746 -1.6575,-0.828 -0.369,-0.4603 -0.553,-1.5658 -0.553,-3.1317 V 60.9537 h -0.8288 L 162.8235,88.8548 V 66.9387 c 0,-1.7498 0.1851,-2.9469 0.6448,-3.7754 0.5531,-0.7373 1.3819,-1.1044 2.5787,-1.2884 v -0.9212 z m 25.1393,0.3679 c 0.553,0 0.7373,0 1.0137,0.2758 0.1842,0.2775 0.4597,0.5531 0.5522,1.1061 0.1842,0.7353 0.3682,2.2096 0.3682,4.5111 0.1839,2.3944 0.1839,5.8935 0.1839,10.6817 0,4.6976 0,8.1959 -0.1839,10.5906 0,2.3028 -0.184,3.7754 -0.3682,4.5124 -0.0925,0.5534 -0.368,0.828 -0.5522,1.1056 -0.2764,0.2755 -0.4607,0.2755 -1.0137,0.2755 -0.2755,0 -0.6437,0 -0.9201,-0.2755 -0.2767,-0.2776 -0.3682,-0.5522 -0.4607,-1.1056 -0.2766,-0.737 -0.3682,-2.2096 -0.4606,-4.5124 0,-2.3947 -0.1842,-5.893 -0.1842,-10.5906 0,-4.7882 0.1842,-8.2873 0.1842,-10.6817 0.0924,-2.3015 0.184,-3.7758 0.4606,-4.5111 0.0925,-0.553 0.184,-0.8286 0.4607,-1.1061 0.2764,-0.2758 0.6446,-0.2758 0.9201,-0.2758 z m 0,33.98 c 0.6446,0 1.1979,-0.2766 1.7501,-0.6457 0.553,-0.4595 1.0128,-1.0128 1.6574,-1.6566 1.1977,-1.9349 2.1181,-4.1445 2.7627,-6.7232 0.7373,-2.5778 1.1052,-5.5236 1.1052,-8.3798 0,-2.9469 -0.3679,-5.8935 -1.0128,-8.4704 -0.737,-2.5787 -1.6574,-4.7903 -2.8551,-6.7224 -0.4606,-0.6446 -1.1044,-1.3819 -1.6574,-1.6583 -0.5522,-0.369 -1.1055,-0.6446 -1.7501,-0.6446 -0.4595,0 -1.0128,0.2756 -1.6574,0.5531 -0.4598,0.3679 -1.1044,1.1052 -1.565,1.7498 -1.1977,1.9321 -2.1181,4.1437 -2.8554,6.7224 -0.6446,2.5769 -0.9201,5.5235 -0.9201,8.4704 0,2.8562 0.184,5.802 0.9201,8.3798 0.6449,2.5787 1.6577,4.7883 2.8554,6.7232 0.4606,0.6438 1.1052,1.1971 1.565,1.6566 0.6446,0.3691 1.1979,0.6457 1.6574,0.6457 z m 9.301,-34.6254 v 12.4319 h 0.8289 c 0.0924,-3.4991 0.553,-6.4449 1.5658,-8.4725 0.9205,-2.2096 2.1181,-3.314 3.5915,-3.314 0.8286,0 1.4735,0.2758 1.749,1.0128 0.5531,0.5533 0.7373,1.3819 0.7373,2.4863 0,1.1052 -0.1842,2.3939 -0.8288,4.0521 -0.5531,1.5659 -1.6575,3.5915 -3.1309,6.0766 -1.7498,2.9469 -2.8553,5.4341 -3.4999,7.0915 -0.4598,1.7501 -0.8286,3.683 -0.8286,5.4331 0,2.3936 0.553,4.2353 1.3816,5.6169 0.6449,1.565 1.7493,2.2107 3.1309,2.2107 0.5522,0 1.2894,-0.2766 1.7501,-0.6457 0.6437,-0.4595 1.1968,-1.0128 1.6574,-1.6566 l 0.8288,2.2099 h 0.9202 V 83.975 h -0.9202 c -0.1842,3.2232 -0.6448,5.7087 -1.3818,7.6427 -0.8289,1.7507 -1.8417,2.7627 -2.8545,2.7627 -0.737,0 -1.3816,-0.4598 -1.7499,-1.012 -0.4606,-0.5539 -0.7361,-1.3816 -0.7361,-2.304 0,-1.4715 1.0125,-3.8662 2.9466,-6.8139 0.7364,-1.2884 1.2895,-2.2096 1.6574,-2.9466 1.565,-2.6694 2.7629,-5.0641 3.3151,-6.9055 0.6446,-1.8425 1.0128,-3.5926 1.0128,-5.3416 0,-2.6711 -0.4606,-4.6967 -1.4734,-6.3533 -0.8289,-1.4743 -2.0256,-2.3029 -3.4991,-2.3029 -0.8286,0 -1.6574,0.2756 -2.2104,0.6446 -0.7365,0.4607 -1.4735,1.1053 -2.0257,2.1181 l -1.1052,-2.4871 z m 14.6427,0.2775 v 0.9212 h 2.2096 v 31.9524 h -0.0916 c -1.1979,0 -2.118,-0.828 -2.6713,-2.2096 -0.5522,-1.3819 -0.8286,-3.6842 -0.8286,-6.8139 h -0.8289 l 0.1843,9.9456 h 13.1689 l 0.0916,-9.9456 h -0.8286 c 0,3.1297 -0.3682,5.432 -0.8288,6.8139 -0.4607,1.3816 -1.4735,2.2096 -2.6703,2.2096 h -0.0924 V 61.8749 h 2.302 v -0.9212 z m 19.2458,0.9212 h 1.9338 v -0.9212 h -8.3798 v 0.9212 h 1.9341 v 31.9524 h -1.9341 v 0.9221 h 8.3798 v -0.9221 h -1.9338 z m 17.0362,11.2332 v -0.3683 c 0,-4.1436 -0.2766,-7.2734 -1.197,-9.301 -0.8286,-2.1172 -2.1181,-3.0382 -3.9595,-3.0382 -0.5533,0 -1.2895,0.2756 -2.0265,0.6446 -0.7364,0.4607 -1.381,1.1053 -2.0256,1.933 -1.2895,1.6574 -2.3023,3.685 -2.8553,6.0786 -0.7362,2.3012 -1.0129,4.8798 -1.0129,7.736 0,2.3939 0.1843,4.695 0.6449,6.9055 0.368,2.1192 1.1053,4.2352 1.9338,6.1693 0.7365,1.7501 1.565,3.1317 2.4863,3.9597 1.0128,0.9221 1.9341,1.3819 3.0393,1.3819 0.5522,0 1.2895,-0.1842 1.749,-0.4598 0.4606,-0.369 1.0136,-0.9221 1.4734,-1.6585 l 0.8289,2.1183 h 0.9212 V 83.791 h -0.9212 c -0.0916,3.1297 -0.6449,5.8019 -1.2887,7.6425 -0.737,1.8416 -1.5658,2.7629 -2.671,2.7629 -1.1968,0 -2.0257,-1.1055 -2.3936,-3.132 -0.4606,-2.2096 -0.7373,-6.8139 -0.7373,-14.0873 0,-6.1713 0.2767,-10.3139 0.7373,-12.3415 0.4595,-1.9321 1.2883,-2.8542 2.486,-2.8542 1.197,0 2.2096,0.8288 2.7629,2.7626 0.6446,1.751 1.0128,4.5128 1.0128,7.9203 v 0.6438 z m 9.3926,-11.7865 c 0.4607,0 0.737,0 0.921,0.2758 0.2767,0.2775 0.5522,0.5531 0.6449,1.1061 0.0915,0.7353 0.3679,2.2096 0.3679,4.5111 0.0927,2.3944 0.0927,5.8935 0.0927,10.6817 0,4.6976 0,8.1959 -0.0927,10.5906 0,2.3028 -0.2764,3.7754 -0.3679,4.5124 -0.0927,0.5534 -0.3682,0.828 -0.6449,1.1056 -0.184,0.2755 -0.4603,0.2755 -0.921,0.2755 -0.3682,0 -0.7364,0 -0.9204,-0.2755 -0.2766,-0.2776 -0.369,-0.5522 -0.553,-1.1056 -0.1843,-0.737 -0.3682,-2.2096 -0.4598,-4.5124 0,-2.3947 -0.0924,-5.893 -0.0924,-10.5906 0,-4.7882 0.0924,-8.2873 0.0924,-10.6817 0.0916,-2.3015 0.2755,-3.7758 0.4598,-4.5111 0.184,-0.553 0.2764,-0.8286 0.553,-1.1061 0.184,-0.2758 0.5522,-0.2758 0.9204,-0.2758 z m 0,33.98 c 0.6446,0 1.1977,-0.2766 1.6574,-0.6457 0.6446,-0.4595 1.1053,-1.0128 1.6583,-1.6566 1.2884,-1.9349 2.2096,-4.1445 2.7618,-6.7232 0.7373,-2.5778 1.1052,-5.5236 1.1052,-8.3798 0,-2.9469 -0.3679,-5.8935 -0.9201,-8.4704 -0.7373,-2.5787 -1.6585,-4.7903 -2.9469,-6.7224 -0.4606,-0.6446 -1.0137,-1.3819 -1.6583,-1.6583 -0.4597,-0.369 -1.0128,-0.6446 -1.6574,-0.6446 -0.4597,0 -1.1043,0.2756 -1.6577,0.5531 -0.4606,0.3679 -1.1052,1.1052 -1.5647,1.7498 -1.1979,1.9321 -2.2107,4.1437 -2.8553,6.7224 -0.6446,2.5769 -1.0129,5.5235 -1.0129,8.4704 0,2.8562 0.2767,5.802 1.0129,8.3798 0.553,2.5787 1.6574,4.7883 2.8553,6.7232 0.4595,0.6438 1.1041,1.1971 1.5647,1.6566 0.5534,0.3691 1.198,0.6457 1.6577,0.6457"
         style="fill:#003d6c;fill-opacity:1;fill-rule:evenodd;stroke:none"
         id="path39" />
      <g
         id="g41"
         transform="scale(3.26293)">
        <path
           d="M 9.2602,30.3681 H 79.5053"
           style="fill:none;stroke:#003d6c;stroke-width:0.5;stroke-linecap:butt;stroke-linejoin:miter;stroke-miterlimit:22.9256;stroke-dasharray:none;stroke-opacity:1"
           id="path43" />
      </g>
      <g
         id="g45"
         transform="matrix(0,-3.2303,3.26293,0,0,0)">
        <path
           d="M -17.6187,9.2554 V 79.9892"
           style="fill:none;stroke:#003d6c;stroke-width:0.5;stroke-linecap:butt;stroke-linejoin:miter;stroke-miterlimit:22.9256;stroke-dasharray:none;stroke-opacity:1"
           id="path47" />
      </g>
    </g>
  </g>
</svg>
